<svg width="17" height="18" viewBox="0 0 17 18" fill="none" xmlns="http://www.w3.org/2000/svg">
<path fill-rule="evenodd" clip-rule="evenodd" d="M16.32 9.18572C16.32 8.60811 16.2682 8.05271 16.1719 7.51953H8.5V10.6705H12.8839C12.6951 11.6887 12.1212 12.5514 11.2585 13.129V15.1729H13.8911C15.4314 13.7548 16.32 11.6665 16.32 9.18572Z" fill="#4285F4"/>
<path fill-rule="evenodd" clip-rule="evenodd" d="M8.50012 17.146C10.6995 17.146 12.5434 16.4166 13.8912 15.1725L11.2586 13.1286C10.5292 13.6173 9.5961 13.9062 8.50012 13.9062C6.3785 13.9062 4.58271 12.4732 3.94215 10.5479H1.2207V12.6584C2.56106 15.3206 5.31584 17.146 8.50012 17.146Z" fill="#34A853"/>
<path fill-rule="evenodd" clip-rule="evenodd" d="M3.94138 10.5477C3.77847 10.059 3.6859 9.5369 3.6859 9.00002C3.6859 8.46313 3.77847 7.94106 3.94138 7.45231V5.3418H1.21994C0.668241 6.44148 0.353516 7.68558 0.353516 9.00002C0.353516 10.3145 0.668241 11.5585 1.21994 12.6582L3.94138 10.5477Z" fill="#FBBC05"/>
<path fill-rule="evenodd" clip-rule="evenodd" d="M8.50012 4.09431C9.69607 4.09431 10.7698 4.50531 11.614 5.31248L13.9504 2.97611C12.5397 1.66167 10.6958 0.854492 8.50012 0.854492C5.31584 0.854492 2.56106 2.6799 1.2207 5.34211L3.94215 7.45262C4.58271 5.52724 6.3785 4.09431 8.50012 4.09431Z" fill="#EA4335"/>
</svg>
